<?xml version="1.0" encoding="UTF-8"?>
<!-- Generator: visioncortex VTracer 0.6.12 -->
<svg version="1.1" xmlns="http://www.w3.org/2000/svg" width="778" height="539">
<path d="M0 0 C12.304 10.52 17.857 22.681 21.445 38.152 C21.729 39.341 22.012 40.529 22.304 41.753 C22.917 44.326 23.527 46.898 24.132 49.472 C25.609 55.752 27.114 62.025 28.616 68.299 C29.14 70.488 29.664 72.677 30.187 74.867 C33.62 89.22 37.182 103.541 40.776 117.855 C41.276 119.847 41.776 121.839 42.276 123.832 C43.788 129.861 45.301 135.891 46.815 141.92 C48.996 150.601 51.17 159.285 53.34 167.969 C53.505 168.629 53.67 169.288 53.84 169.968 C54.672 173.3 55.505 176.632 56.337 179.964 C58.002 186.626 59.667 193.287 61.332 199.949 C61.497 200.609 61.662 201.269 61.832 201.948 C63.67 209.302 65.51 216.656 67.352 224.009 C67.519 224.674 67.685 225.338 67.857 226.023 C68.53 228.709 69.203 231.396 69.876 234.082 C71.713 241.409 73.546 248.737 75.371 256.066 C75.863 258.043 76.355 260.02 76.848 261.996 C77.176 263.313 77.503 264.63 77.831 265.946 C79.877 274.163 81.945 282.374 84.042 290.579 C85.475 296.188 86.896 301.8 88.308 307.415 C89.143 310.729 89.984 314.041 90.842 317.349 C96.007 337.335 100.58 356.548 90.461 375.898 C82.385 389.496 69.725 397.584 54.564 401.648 C52.46 402.169 50.352 402.677 48.242 403.176 C47.064 403.464 45.885 403.752 44.671 404.048 C41.416 404.841 38.159 405.625 34.9 406.404 C31.368 407.25 27.839 408.11 24.309 408.969 C18.067 410.485 11.822 411.992 5.576 413.495 C-4.333 415.879 -14.239 418.278 -24.144 420.678 C-45.359 425.819 -66.578 430.943 -87.798 436.063 C-97.743 438.462 -107.687 440.863 -117.631 443.268 C-123.989 444.806 -130.347 446.341 -136.707 447.87 C-147.223 450.401 -157.728 452.959 -168.204 455.652 C-172.697 456.807 -177.194 457.948 -181.691 459.089 C-184.71 459.862 -187.722 460.66 -190.735 461.459 C-210.757 466.625 -228.697 467.319 -247.105 456.578 C-262.691 446.727 -270.605 432.633 -275.035 415.035 C-275.329 413.907 -275.623 412.778 -275.925 411.616 C-276.541 409.246 -277.152 406.876 -277.758 404.504 C-278.628 401.101 -279.513 397.701 -280.403 394.303 C-282.192 387.464 -283.961 380.619 -285.727 373.773 C-286.048 372.529 -286.369 371.284 -286.701 370.002 C-293.417 343.991 -300.055 317.96 -306.66 291.92 C-307.728 287.707 -308.798 283.494 -309.868 279.281 C-328.931 204.217 -328.931 204.217 -337.273 170.601 C-337.59 169.323 -337.907 168.046 -338.234 166.729 C-338.851 164.241 -339.469 161.753 -340.086 159.264 C-341.893 151.997 -343.754 144.746 -345.656 137.504 C-351.659 114.493 -356.343 93.819 -344.539 71.773 C-334.85 56.135 -322.003 49.684 -304.703 45.485 C-299.682 44.31 -294.642 43.228 -289.602 42.145 C-287.905 41.776 -286.208 41.408 -284.511 41.039 C-279.873 40.031 -275.233 39.03 -270.593 38.03 C-266.635 37.176 -262.677 36.319 -258.719 35.462 C-244.037 32.283 -229.351 29.12 -214.664 25.961 C-214.023 25.823 -214.023 25.823 -210.778 25.125 C-190.739 20.814 -170.698 16.512 -150.656 12.214 C-148.617 11.777 -146.577 11.339 -144.537 10.902 C-118.586 5.336 -92.635 -0.229 -66.661 -5.687 C-64.819 -6.075 -62.976 -6.463 -61.133 -6.852 C-58.638 -7.378 -56.143 -7.901 -53.647 -8.423 C-52.933 -8.574 -52.219 -8.725 -51.483 -8.881 C-32.71 -12.787 -15.675 -11.998 0 0 Z " fill="card" data-role="card" transform="translate(358.6640625,68.0390625)"/>
<path d="M0 0 C0.374 -0.008 0.374 -0.008 2.27 -0.049 C16.868 -0.061 31.768 4.821 45.89 8.123 C49.483 8.963 53.076 9.8 56.669 10.636 C67.789 13.225 78.908 15.823 90.026 18.422 C99.413 20.617 108.8 22.809 118.188 25 C118.965 25.181 119.742 25.363 120.543 25.55 C144.845 31.222 169.167 36.792 193.549 42.108 C196.712 42.8 199.862 43.518 203 44.312 C201.823 54.642 200.294 64.846 198.381 75.063 C197.947 77.381 197.521 79.699 197.095 82.018 C195.887 88.597 194.669 95.175 193.444 101.751 C192.69 105.807 191.943 109.866 191.2 113.925 C190.919 115.456 190.634 116.986 190.346 118.516 C186.157 140.791 186.157 140.791 192 150.312 C197.512 156.13 205.895 157.697 213.492 159.274 C214.3 159.446 215.107 159.619 215.94 159.797 C218.583 160.362 221.229 160.917 223.875 161.473 C225.728 161.867 227.581 162.261 229.433 162.656 C234.295 163.691 239.158 164.72 244.022 165.746 C251.806 167.39 259.587 169.046 267.369 170.7 C270.076 171.275 272.784 171.847 275.492 172.418 C277.164 172.773 278.836 173.127 280.508 173.481 C281.252 173.637 281.996 173.794 282.763 173.955 C287.538 174.968 292.27 176.105 297 177.312 C295.697 192.361 292.668 207.185 289.664 221.973 C287.258 233.911 284.987 245.872 282.75 257.843 C279.758 273.851 276.741 289.852 273.5 305.812 C270.859 318.819 268.38 331.853 265.94 344.898 C262.32 364.234 258.659 383.564 254.865 402.866 C254.215 406.174 253.571 409.483 252.934 412.793 C252.222 416.491 251.494 420.185 250.762 423.879 C250.557 424.961 250.352 426.043 250.141 427.158 C246.884 443.306 239.701 458.057 225.797 467.484 C208.843 478 192.652 477.573 173.605 473.402 C172.096 473.083 170.587 472.765 169.078 472.448 C164.971 471.581 160.868 470.696 156.766 469.807 C153.29 469.056 149.812 468.316 146.334 467.576 C134.639 465.086 122.952 462.558 111.268 460.022 C107.898 459.29 104.529 458.56 101.159 457.83 C84.478 454.213 67.8 450.581 51.125 446.938 C49.96 446.683 48.795 446.429 47.595 446.167 C40.841 444.691 34.087 443.212 27.334 441.728 C25.27 441.275 23.206 440.823 21.142 440.372 C-5.569 434.528 -5.569 434.528 -10 432.312 C-9.867 431.721 -9.734 431.129 -9.598 430.52 C-9.421 429.729 -9.244 428.939 -9.062 428.125 C-8.888 427.348 -8.714 426.57 -8.535 425.77 C-8.359 424.959 -8.182 424.148 -8 423.312 C-7.818 422.531 -7.636 421.75 -7.449 420.945 C-6.9 417.727 -6.792 414.64 -6.75 411.375 C-6.724 410.19 -6.698 409.006 -6.672 407.785 C-7.08 396.956 -10.767 385.986 -13.449 375.539 C-13.782 374.234 -14.115 372.93 -14.447 371.625 C-15.155 368.847 -15.864 366.069 -16.575 363.291 C-18.304 356.528 -20.024 349.763 -21.745 342.997 C-22.14 341.442 -22.536 339.887 -22.931 338.332 C-29.711 311.682 -36.37 285.001 -43 258.312 C-43.207 257.478 -43.415 256.643 -43.628 255.783 C-46.615 243.759 -49.596 231.735 -52.571 219.709 C-53.478 216.045 -54.385 212.382 -55.293 208.72 C-56.362 204.409 -57.428 200.097 -58.492 195.785 C-58.887 194.19 -59.281 192.595 -59.677 191 C-60.222 188.805 -60.763 186.609 -61.304 184.414 C-61.609 183.181 -61.914 181.948 -62.228 180.678 C-67.33 158.432 -63.866 133.646 -60.711 111.376 C-60.027 106.543 -59.378 101.705 -58.732 96.866 C-57.973 91.181 -57.206 85.497 -56.438 79.812 C-56.29 78.721 -56.142 77.629 -55.99 76.504 C-48.94 24.579 -48.94 24.579 -32.438 10.977 C-22.508 4.198 -12.065 -0.05 0 0 Z " fill="card" data-role="card" transform="translate(475,6.6875)"/>
<path d="M0 0 C8.317 4.727 15.126 12.841 21.88 19.545 C22.746 20.401 23.613 21.258 24.506 22.141 C27.338 24.943 30.166 27.75 32.993 30.558 C33.235 30.798 33.235 30.798 34.462 32.017 C39.051 36.575 43.638 41.136 48.22 45.701 C54.032 51.49 59.853 57.27 65.688 63.035 C69.82 67.119 73.94 71.215 78.051 75.319 C80.494 77.757 82.942 80.19 85.402 82.611 C113.041 109.855 113.041 109.855 113.985 129.858 C113.456 142.205 109.349 153.679 100.923 162.796 C92.676 170.28 83.321 173.517 72.61 175.858 C70.688 176.3 68.767 176.741 66.845 177.182 C64.816 177.645 62.784 178.1 60.752 178.554 C56.632 179.474 52.521 180.429 48.411 181.39 C30.696 185.514 12.932 189.392 -4.861 193.163 C-28.75 198.229 -52.564 203.636 -76.39 208.983 C-78.833 209.532 -81.275 210.08 -83.718 210.628 C-84.322 210.763 -84.322 210.763 -87.375 211.449 C-89.788 211.99 -92.201 212.529 -94.614 213.068 C-100.697 214.426 -106.775 215.8 -112.847 217.204 C-114.057 217.48 -115.266 217.757 -116.513 218.042 C-118.793 218.563 -121.071 219.091 -123.348 219.626 C-139.821 223.369 -154.311 223.007 -169.14 214.296 C-179.525 207.248 -185.6 198.051 -188.702 185.921 C-191.581 170.131 -184.682 156.277 -178.64 142.046 C-177.983 140.488 -177.327 138.929 -176.671 137.37 C-175.294 134.097 -173.912 130.825 -172.529 127.554 C-170.356 122.411 -168.206 117.258 -166.058 112.104 C-164.993 109.555 -163.927 107.005 -162.861 104.456 C-162.181 102.829 -161.502 101.202 -160.825 99.574 C-148.458 69.879 -148.458 69.879 -137.015 64.108 C-128.94 60.873 -121.814 62.348 -113.714 65.038 C-107.867 67.58 -103.234 71.395 -98.39 75.483 C-97.832 75.953 -97.274 76.423 -96.7 76.907 C-92.107 80.78 -92.107 80.78 -89.929 82.677 C-81.056 90.36 -81.056 90.36 -76.015 90.733 C-75.149 90.651 -74.282 90.568 -73.39 90.483 C-67.821 79.452 -62.313 68.398 -57.015 57.233 C-51.481 45.582 -45.726 34.045 -39.917 22.529 C-38.854 20.408 -37.802 18.283 -36.758 16.153 C-36.23 15.08 -35.703 14.007 -35.16 12.901 C-34.687 11.934 -34.215 10.966 -33.729 9.969 C-26.92 -2.668 -12.457 -5.776 0 0 Z " fill="accent" data-role="accent" transform="translate(298.38997077941895,244.51659679412842)"/>
<path d="M0 0 C1.199 0.259 2.397 0.518 3.632 0.785 C6.915 1.496 10.196 2.216 13.477 2.939 C16.969 3.707 20.464 4.464 23.958 5.222 C30.672 6.68 37.383 8.148 44.094 9.62 C51.778 11.305 59.464 12.981 67.151 14.656 C70.972 15.489 74.793 16.322 78.614 17.156 C79.366 17.32 80.117 17.484 80.892 17.652 C86.176 18.805 91.46 19.96 96.743 21.115 C112.192 24.493 127.645 27.852 143.112 31.146 C145.653 31.687 148.194 32.23 150.735 32.773 C151.131 32.858 151.131 32.858 153.135 33.287 C154.661 33.613 156.187 33.94 157.713 34.266 C161.25 35.022 164.788 35.774 168.328 36.518 C172.09 37.309 175.849 38.115 179.608 38.924 C180.651 39.139 181.693 39.354 182.768 39.576 C190.757 41.315 198.086 43.366 202.772 50.576 C203.185 51.174 203.597 51.772 204.022 52.388 C205.625 57.063 205.252 61.217 203.647 65.763 C200.826 69.995 197.601 72.64 193.085 74.951 C182.792 76.893 171.645 73.231 161.573 71.033 C159.881 70.669 158.189 70.305 156.496 69.942 C151.964 68.967 147.434 67.985 142.905 67 C138.161 65.971 133.416 64.949 128.672 63.925 C118.24 61.674 107.812 59.41 97.383 57.143 C94.125 56.435 90.866 55.728 87.607 55.021 C72.269 51.692 56.936 48.343 41.609 44.96 C34.36 43.361 27.106 41.78 19.85 40.213 C15.268 39.222 10.688 38.219 6.109 37.215 C4.006 36.755 1.902 36.301 -0.204 35.851 C-24.176 30.726 -24.176 30.726 -30.79 23.951 C-33.6 19.308 -33.973 14.868 -33.228 9.576 C-31.264 4.558 -28.191 0.569 -23.246 -1.728 C-15.873 -4.27 -7.312 -1.628 0 0 Z " fill="accent" data-role="accent" transform="translate(499.2275390625,176.424072265625)"/>
<path d="M0 0 C11.509 7.972 19.024 19.237 22.188 32.875 C23.658 46.734 22.322 59.156 13.938 70.688 C5.492 80.653 -4.879 88.346 -18.111 90.197 C-20.437 90.347 -22.732 90.394 -25.062 90.375 C-25.888 90.369 -26.714 90.364 -27.564 90.358 C-41.262 89.962 -52.705 83.469 -62.062 73.688 C-70.589 63.521 -74.414 51.725 -74.059 38.535 C-72.831 25.26 -67.806 12.946 -57.812 3.875 C-40.497 -9.495 -19.062 -11.215 0 0 Z " fill="accent" data-role="accent" transform="translate(152.8125,164.125)"/>
<path d="M0 0 C1.596 0.35 3.193 0.698 4.789 1.045 C8.174 1.783 11.556 2.529 14.937 3.282 C20.268 4.47 25.603 5.638 30.939 6.803 C36.339 7.983 41.739 9.163 47.137 10.35 C61.148 13.429 75.175 16.424 89.216 19.361 C92.621 20.074 96.025 20.793 99.428 21.513 C109.777 23.7 120.13 25.85 130.507 27.9 C135.355 28.86 140.2 29.84 145.044 30.821 C147.326 31.278 149.611 31.725 151.897 32.163 C155.036 32.764 158.169 33.396 161.301 34.035 C161.758 34.118 161.758 34.118 164.073 34.539 C170.625 35.923 175.039 38.623 179.453 43.703 C182.085 48.267 182.115 52.537 181.453 57.703 C179.241 62.128 176.505 64.898 172.453 67.703 C165.146 70.139 157.317 68.558 149.974 66.922 C149.526 66.826 149.526 66.826 147.262 66.344 C144.308 65.711 141.357 65.065 138.406 64.418 C136.301 63.964 134.195 63.512 132.089 63.06 C126.456 61.849 120.825 60.626 115.195 59.4 C109.362 58.132 103.527 56.875 97.691 55.618 C89.491 53.85 81.292 52.078 73.094 50.302 C60.278 47.526 47.456 44.773 34.629 42.043 C32.991 41.694 31.353 41.345 29.715 40.996 C23.71 39.716 17.705 38.437 11.7 37.161 C-32.185 27.83 -32.185 27.83 -37.547 21.703 C-40.439 17.058 -41.075 13.23 -40.258 7.918 C-38.829 3.468 -35.761 0.056 -31.8 -2.364 C-22.213 -6.333 -9.731 -2.196 0 0 Z " fill="accent" data-role="accent" transform="translate(509.546875,253.296875)"/>
<path d="M0 0 C3.202 1.365 4.846 2.738 6.848 5.57 C7.365 6.294 7.882 7.018 8.416 7.764 C8.959 8.543 9.503 9.322 10.062 10.125 C10.632 10.927 11.201 11.73 11.788 12.557 C16.376 19.046 20.893 25.587 25.367 32.156 C28.536 36.8 31.77 41.398 35 46 C36.143 47.631 37.287 49.263 38.43 50.895 C38.992 51.698 39.555 52.501 40.135 53.328 C45.314 60.722 50.479 68.126 55.609 75.555 C58.041 79.067 60.496 82.563 62.95 86.06 C69.364 95.201 75.707 104.386 82 113.609 C85.97 119.427 89.981 125.216 94 131 C90.728 132.636 87.39 131.243 83.938 130.516 C83.099 130.344 82.26 130.173 81.396 129.997 C78.596 129.422 75.798 128.837 73 128.25 C71.046 127.843 69.092 127.437 67.138 127.03 C61.869 125.931 56.604 124.818 51.338 123.704 C47.942 122.988 44.544 122.278 41.146 121.57 C35.449 120.382 29.755 119.175 24.064 117.956 C21.866 117.488 19.666 117.024 17.465 116.566 C14.364 115.919 11.268 115.251 8.172 114.578 C7.259 114.392 6.346 114.206 5.406 114.014 C-1.667 112.442 -7.281 109.791 -12.375 104.562 C-17.74 96.102 -16.257 87.031 -14.496 77.648 C-14.337 76.767 -14.179 75.886 -14.015 74.978 C-13.497 72.109 -12.967 69.242 -12.438 66.375 C-12.075 64.381 -11.713 62.386 -11.351 60.391 C-10.609 56.295 -9.862 52.2 -9.112 48.105 C-8.039 42.23 -6.989 36.35 -5.945 30.469 C-5.624 28.664 -5.304 26.858 -4.983 25.053 C-4.525 22.478 -4.067 19.902 -3.611 17.326 C-3.192 14.965 -2.77 12.603 -2.348 10.242 C-2.225 9.547 -2.103 8.853 -1.976 8.137 C-1.472 5.332 -0.903 2.709 0 0 Z " fill="accent" data-role="accent" transform="translate(678,52)"/>
<path d="M0 0 C0.501 0.005 0.501 0.005 3.039 0.027 C3.81 0.039 4.581 0.051 5.375 0.062 C5.375 0.393 5.375 0.722 5.375 1.062 C4.578 1.126 3.782 1.189 2.961 1.254 C-6.771 2.379 -6.771 2.379 -10.375 6.688 C-11.158 7.79 -11.921 8.908 -12.625 10.062 C-13.285 9.072 -13.945 8.082 -14.625 7.062 C-13.502 6.081 -12.377 5.102 -11.25 4.125 C-10.937 3.852 -10.937 3.852 -9.352 2.473 C-6.175 -0.121 -4.033 -0.047 0 0 Z " fill="accent" data-role="accent" transform="translate(485.625,249.9375)"/>
<path d="M0 0 C0.66 0 1.32 0 2 0 C3.32 2.31 4.64 4.62 6 7 C5.01 6.835 5.01 6.835 0 6 C0 4.02 0 2.04 0 0 Z " fill="accent" data-role="accent" transform="translate(766,177)"/>
</svg>
