<?xml version="1.0" encoding="UTF-8"?>
<!-- Generator: visioncortex VTracer 0.6.12 -->
<svg version="1.1" xmlns="http://www.w3.org/2000/svg" width="795" height="543">
<path d="M0 0 C4.205 1.044 8.418 2.048 12.635 3.045 C14.274 3.433 15.911 3.826 17.548 4.224 C22.078 5.323 26.62 6.333 31.181 7.297 C38.67 8.89 46.117 10.636 53.563 12.411 C56.001 12.993 58.439 13.572 60.877 14.15 C68.825 16.038 76.77 17.934 84.715 19.835 C89.179 20.903 93.643 21.969 98.107 23.036 C98.995 23.248 99.883 23.46 100.797 23.679 C111.945 26.341 123.105 28.928 134.294 31.411 C148.075 34.472 161.755 37.895 175.441 41.351 C184.184 43.556 192.928 45.711 201.732 47.661 C249.597 58.381 249.597 58.381 262.865 78.188 C264.674 81.371 266.228 84.546 267.669 87.911 C268.028 88.733 268.386 89.555 268.755 90.403 C274.909 108.073 269.649 129.162 266.044 146.786 C265.58 149.137 265.117 151.488 264.657 153.84 C263.752 158.452 262.837 163.062 261.913 167.671 C260.328 175.593 258.833 183.53 257.357 191.473 C257.124 192.717 256.89 193.961 256.65 195.243 C255.088 203.582 253.587 211.931 252.107 220.286 C250.521 229.235 248.886 238.173 247.169 247.098 C246.992 248.021 246.815 248.944 246.632 249.895 C245.635 255.04 244.617 260.181 243.58 265.318 C240.204 282.072 237.019 298.857 233.894 315.659 C229.703 338.159 229.703 338.159 227.282 348.215 C226.224 352.868 225.523 357.573 224.794 362.286 C223.356 371.256 221.604 380.101 219.598 388.96 C217.599 397.914 216.022 406.929 214.545 415.982 C211.454 434.216 205.727 450.458 190.74 462.208 C177.108 471.711 160.947 474.17 144.568 471.578 C141.299 470.874 138.091 469.964 134.876 469.047 C130.135 467.707 125.328 466.847 120.482 465.973 C112.574 464.524 104.78 462.792 96.974 460.872 C90.387 459.272 83.775 457.901 77.123 456.606 C63.929 454.001 50.798 451.137 37.669 448.223 C35.451 447.733 33.232 447.242 31.013 446.752 C17.593 443.787 17.593 443.787 11.329 442.388 C5.901 441.176 0.465 440.007 -4.975 438.852 C-6.805 438.462 -8.635 438.072 -10.465 437.682 C-13.302 437.078 -16.138 436.474 -18.975 435.872 C-29.138 433.716 -39.283 431.561 -49.331 428.911 C-48.839 425.941 -48.343 422.976 -47.795 420.016 C-47.621 419.053 -47.447 418.09 -47.268 417.098 C-47.091 416.143 -46.915 415.188 -46.733 414.204 C-45.824 406.765 -46.446 399.931 -48.006 392.629 C-48.185 391.767 -48.364 390.905 -48.548 390.016 C-50.39 381.309 -52.566 372.692 -54.819 364.084 C-55.792 360.363 -56.753 356.64 -57.715 352.917 C-58.208 351.01 -58.701 349.104 -59.195 347.198 C-61.523 338.199 -63.777 329.182 -66.018 320.161 C-68.799 308.98 -71.627 297.813 -74.518 286.661 C-77.57 274.887 -80.556 263.099 -83.488 251.296 C-84.991 245.258 -86.502 239.222 -88.011 233.186 C-88.97 229.355 -89.927 225.523 -90.885 221.692 C-91.285 220.094 -91.684 218.497 -92.083 216.899 C-94.712 206.386 -97.34 195.873 -99.968 185.36 C-100.169 184.558 -100.369 183.756 -100.576 182.93 C-100.964 181.376 -101.352 179.822 -101.738 178.267 C-102.567 174.935 -103.41 171.609 -104.289 168.29 C-104.566 167.238 -104.842 166.186 -105.127 165.102 C-105.366 164.22 -105.604 163.337 -105.849 162.428 C-107.45 154.056 -104.937 144.858 -103.523 136.551 C-102.527 130.609 -101.811 124.644 -101.123 118.66 C-100.2 110.665 -99.114 102.695 -98.018 94.723 C-96.634 84.649 -95.277 74.574 -94.034 64.481 C-93.715 61.927 -93.394 59.374 -93.074 56.82 C-92.873 55.195 -92.676 53.569 -92.484 51.943 C-90.575 35.82 -87.009 19.023 -74.456 7.563 C-50.399 -11.143 -27.394 -6.81 0 0 Z M-45.331 167.911 C-48.284 172.653 -48.757 176.381 -47.905 181.77 C-46.432 187.259 -42.908 190.785 -38.331 193.911 C-34.067 195.889 -29.636 196.813 -25.057 197.75 C-24.657 197.834 -24.657 197.834 -22.63 198.258 C-20.073 198.793 -17.514 199.32 -14.956 199.848 C-13.274 200.199 -11.594 200.55 -9.913 200.901 C-3.614 202.214 2.685 203.522 8.997 204.771 C9.333 204.838 9.333 204.838 11.035 205.175 C12.823 205.528 14.612 205.877 16.401 206.226 C19.831 206.944 23.214 207.783 26.607 208.661 C34.835 210.77 43.122 212.598 51.419 214.411 C51.773 214.488 51.773 214.488 53.562 214.879 C61.521 216.614 69.485 218.301 77.482 219.848 C86.593 221.615 95.628 223.701 104.669 225.786 C124.326 230.315 143.995 234.839 163.861 238.368 C166.669 238.911 166.669 238.911 169.669 239.911 C176.013 240.448 180.401 239.592 185.669 235.911 C189.726 232.064 191.786 228.334 192.044 222.723 C191.939 217.324 190.329 213.843 186.669 209.911 C180.228 205.714 173.531 203.931 166.044 202.661 C155.835 200.771 145.721 198.613 135.602 196.295 C117.329 192.109 99.004 188.215 80.64 184.449 C70.46 182.356 60.311 180.171 50.183 177.841 C38.543 175.176 26.855 172.741 15.169 170.286 C11.76 169.567 8.35 168.849 4.94 168.13 C2.765 167.672 0.59 167.214 -1.586 166.757 C-5.993 165.831 -10.399 164.902 -14.796 163.927 C-16.016 163.658 -17.237 163.388 -18.495 163.11 C-19.484 162.886 -20.474 162.663 -21.493 162.433 C-30.772 160.725 -38.794 160.354 -45.331 167.911 Z M-43.331 244.911 C-45.246 250.656 -45.294 256.742 -42.831 262.286 C-37.615 267.762 -31.827 270.512 -24.393 271.786 C-22.704 272.11 -21.015 272.435 -19.327 272.762 C-18.383 272.94 -17.439 273.119 -16.467 273.302 C-10.978 274.367 -5.513 275.547 -0.045 276.715 C2.082 277.169 4.21 277.62 6.338 278.071 C17.311 280.398 28.275 282.77 39.237 285.15 C52.598 288.05 65.974 290.88 79.353 293.699 C80.468 293.934 81.583 294.169 82.732 294.411 C83.841 294.644 84.95 294.878 86.093 295.119 C101.963 298.465 117.812 301.887 133.635 305.45 C161.28 311.674 161.28 311.674 170.107 308.786 C173.738 306.128 176.656 303.249 178.482 299.036 C179.271 290.091 179.271 290.091 177.044 285.723 C167.349 274.242 152.046 273.915 137.968 271.097 C118.451 267.184 98.985 263.063 79.544 258.786 C62.845 255.112 46.136 251.515 29.377 248.121 C16.751 245.565 4.16 242.876 -8.414 240.079 C-9.636 239.808 -10.857 239.537 -12.116 239.258 C-13.177 239.021 -14.238 238.784 -15.331 238.54 C-26.88 236.118 -34.905 235.282 -43.331 244.911 Z " fill="card" data-role="card" transform="translate(517.33056640625,14.08935546875)"/>
<path d="M0 0 C10.083 9.272 15.127 20.592 18.068 33.749 C18.668 36.359 19.325 38.952 19.988 41.547 C22.437 51.145 24.765 60.758 26.938 70.422 C29.492 81.758 32.299 93.023 35.156 104.285 C36.098 107.998 37.037 111.711 37.973 115.426 C38.2 116.328 38.427 117.23 38.661 118.16 C40.08 123.844 41.387 129.543 42.621 135.27 C43.898 141.187 45.372 147.011 47.035 152.832 C49.648 161.988 51.796 171.229 53.902 180.513 C57.078 194.5 60.359 208.42 64.254 222.227 C65.697 227.347 67.001 232.497 68.281 237.66 C68.519 238.619 68.757 239.577 69.002 240.565 C69.543 242.75 70.084 244.936 70.625 247.122 C72.451 254.502 74.293 261.879 76.134 269.255 C76.607 271.149 77.079 273.043 77.552 274.936 C80.162 285.401 82.794 295.859 85.492 306.301 C85.724 307.197 85.955 308.094 86.193 309.018 C87.293 313.276 88.397 317.532 89.509 321.787 C89.904 323.314 90.3 324.841 90.695 326.367 C90.874 327.044 91.053 327.722 91.237 328.419 C94.777 342.147 96.644 360.203 89.594 373.035 C89.085 373.965 88.575 374.894 88.051 375.852 C79.821 389.694 68.547 397.821 53.02 401.996 C50.265 402.654 47.5 403.265 44.734 403.875 C38.405 405.277 32.129 406.886 25.844 408.473 C12.817 411.747 -0.237 414.893 -13.316 417.949 C-24.388 420.54 -35.437 423.215 -46.486 425.899 C-47.937 426.252 -49.389 426.605 -50.84 426.957 C-51.561 427.132 -52.281 427.307 -53.024 427.488 C-57.683 428.619 -62.343 429.743 -67.004 430.863 C-80.371 434.076 -93.724 437.336 -107.048 440.727 C-112.606 442.131 -118.153 443.413 -123.781 444.501 C-129.252 445.614 -134.669 446.968 -140.094 448.285 C-140.734 448.44 -140.734 448.44 -143.973 449.223 C-151.6 451.073 -159.198 453.015 -166.781 455.035 C-175.283 457.28 -183.814 459.388 -192.379 461.375 C-194.333 461.831 -196.284 462.297 -198.236 462.764 C-217.265 467.115 -235.952 468.067 -253.082 457.363 C-255.309 455.687 -257.361 453.927 -259.406 452.035 C-260.091 451.441 -260.775 450.847 -261.48 450.234 C-278.058 434.983 -280.952 410.243 -286.262 389.398 C-288.272 381.511 -290.355 373.643 -292.451 365.778 C-295.153 355.631 -297.829 345.481 -300.344 335.285 C-302.844 325.153 -305.489 315.062 -308.156 304.973 C-312.122 289.969 -316.014 274.947 -319.855 259.91 C-320.265 258.305 -320.676 256.699 -321.086 255.094 C-321.284 254.317 -321.483 253.54 -321.687 252.739 C-323.508 245.623 -325.363 238.517 -327.219 231.41 C-329.5 222.669 -331.649 213.906 -333.704 205.109 C-334.819 200.377 -336.033 195.701 -337.406 191.035 C-339.252 184.752 -340.775 178.423 -342.267 172.05 C-344.256 163.588 -346.354 155.154 -348.469 146.723 C-348.635 146.062 -348.8 145.4 -348.971 144.719 C-349.299 143.413 -349.626 142.107 -349.954 140.801 C-350.44 138.864 -350.925 136.927 -351.411 134.99 C-352.101 132.238 -352.802 129.489 -353.507 126.741 C-353.688 126.03 -353.869 125.319 -354.056 124.587 C-354.559 122.613 -355.065 120.64 -355.572 118.667 C-359.391 102.038 -358.227 85.101 -349.535 70.203 C-338.094 53.177 -324.143 46.782 -304.363 42.789 C-302.316 42.39 -300.267 41.993 -298.219 41.598 C-290.185 40.022 -282.199 38.343 -274.242 36.417 C-268.674 35.075 -263.08 33.928 -257.457 32.844 C-253.916 32.151 -250.39 31.393 -246.863 30.633 C-241.953 29.576 -237.038 28.542 -232.117 27.535 C-230.908 27.288 -229.699 27.04 -228.453 26.785 C-225.998 26.284 -223.542 25.784 -221.086 25.285 C-214.425 23.919 -207.822 22.427 -201.234 20.745 C-196.75 19.619 -192.238 18.635 -187.719 17.66 C-186.741 17.448 -185.763 17.236 -184.756 17.018 C-176.417 15.223 -168.054 13.562 -159.686 11.913 C-151.995 10.385 -144.346 8.714 -136.715 6.91 C-130.852 5.539 -124.964 4.334 -119.059 3.164 C-109.333 1.237 -99.635 -0.805 -89.942 -2.892 C-87.275 -3.466 -84.608 -4.038 -81.941 -4.609 C-80.177 -4.988 -78.413 -5.367 -76.648 -5.746 C-75.79 -5.93 -74.931 -6.115 -74.046 -6.305 C-69.829 -7.213 -65.616 -8.139 -61.411 -9.102 C-61.011 -9.193 -61.011 -9.193 -58.986 -9.653 C-57.502 -9.992 -56.018 -10.335 -54.535 -10.684 C-34.894 -15.163 -15.864 -12.953 0 0 Z M-273.406 104.035 C-282.94 115.562 -285.365 129.42 -284.406 144.035 C-283.764 147.546 -282.739 150.728 -281.406 154.035 C-281.078 154.856 -280.749 155.677 -280.41 156.523 C-274.663 169.311 -264.455 177.796 -251.656 183.195 C-239.275 187.157 -225.189 186.046 -213.43 180.676 C-200.501 173.915 -192.106 163.908 -187.406 150.035 C-186.769 145.818 -186.748 141.73 -186.844 137.473 C-186.838 136.943 -186.838 136.943 -186.811 134.264 C-186.932 121.164 -192.847 109.813 -201.656 100.223 C-211.525 90.996 -225.235 86.695 -238.516 86.891 C-252.502 87.59 -263.917 93.851 -273.406 104.035 Z M-93.906 180.285 C-96.736 183.846 -98.824 187.587 -100.805 191.66 C-101.14 192.34 -101.476 193.02 -101.821 193.721 C-103.021 196.157 -104.213 198.596 -105.406 201.035 C-106.402 203.061 -107.397 205.087 -108.394 207.112 C-111.779 214 -115.155 220.893 -118.531 227.785 C-120.27 231.335 -122.009 234.884 -123.749 238.434 C-124.822 240.624 -125.895 242.815 -126.968 245.005 C-130.412 252.033 -133.896 259.04 -137.406 266.035 C-144.959 266.035 -148.896 261.786 -154.406 257.035 C-168.458 245.125 -179.124 236.459 -198.406 238.035 C-201.446 238.945 -203.817 240.224 -206.406 242.035 C-207.273 242.571 -208.139 243.108 -209.031 243.66 C-217.392 252.021 -221.277 264.581 -225.781 275.285 C-226.568 277.142 -227.355 278.998 -228.143 280.854 C-229.763 284.675 -231.379 288.498 -232.992 292.323 C-234.949 296.96 -236.922 301.59 -238.904 306.217 C-240.374 309.651 -241.838 313.087 -243.3 316.525 C-243.988 318.138 -244.678 319.75 -245.37 321.362 C-252.408 337.772 -257.353 351.339 -251.406 369.035 C-245.885 382.128 -235.936 390.005 -223.094 395.348 C-205.841 402.106 -187.589 396.084 -170.406 392.035 C-169.067 391.721 -167.728 391.408 -166.389 391.095 C-160.805 389.787 -155.222 388.473 -149.641 387.147 C-134.688 383.599 -119.685 380.283 -104.677 376.976 C-103.253 376.663 -101.83 376.349 -100.406 376.035 C-99.642 375.867 -98.878 375.698 -98.09 375.525 C-89.28 373.582 -80.484 371.61 -71.719 369.473 C-64.551 367.745 -57.382 366.185 -50.145 364.777 C-40.261 362.815 -30.438 360.634 -20.719 357.973 C-14.622 356.307 -8.511 355.017 -2.309 353.812 C31.463 347.085 31.463 347.085 42.469 332.16 C43.543 330.472 44.586 328.764 45.594 327.035 C46.028 326.335 46.463 325.635 46.91 324.914 C51.679 315.593 51.138 302.277 48.676 292.324 C47.495 289.352 46.254 286.769 44.594 284.035 C44.216 283.411 43.839 282.786 43.45 282.143 C39.383 275.718 34.511 270.521 29.135 265.173 C28.191 264.223 27.248 263.272 26.305 262.321 C23.764 259.763 21.214 257.214 18.662 254.667 C16.524 252.533 14.391 250.394 12.258 248.255 C7.225 243.207 2.184 238.168 -2.862 233.133 C-8.055 227.952 -13.234 222.759 -18.407 217.559 C-22.865 213.079 -27.33 208.607 -31.801 204.142 C-34.465 201.481 -37.126 198.818 -39.78 196.147 C-42.274 193.637 -44.779 191.137 -47.29 188.644 C-48.641 187.299 -49.981 185.944 -51.322 184.589 C-58.71 177.289 -65.575 172.983 -76.156 172.723 C-83.808 172.825 -88.55 174.845 -93.906 180.285 Z " fill="card" data-role="card" transform="translate(365.40625,70.96484375)"/>
<path d="M0 0 C6.887 5.566 13.127 11.971 19.394 18.217 C20.273 19.089 21.152 19.962 22.058 20.861 C24.932 23.716 27.803 26.574 30.672 29.434 C31.669 30.427 32.666 31.42 33.664 32.413 C38.346 37.076 43.025 41.741 47.702 46.41 C53.069 51.767 58.444 57.116 63.827 62.458 C68.012 66.613 72.189 70.775 76.36 74.943 C78.841 77.422 81.326 79.898 83.818 82.365 C86.598 85.117 89.362 87.885 92.124 90.654 C92.938 91.455 93.751 92.256 94.59 93.081 C99.73 98.268 103.531 103.582 107 110 C107.426 110.757 107.853 111.515 108.292 112.295 C113.212 121.459 112.428 134.806 110.152 144.676 C105.602 156.567 96.979 165.689 85.551 171.176 C77.045 174.549 67.934 176.159 59 178 C58.042 178.197 57.085 178.395 56.098 178.598 C55.098 178.804 54.097 179.01 53.066 179.223 C51.003 179.648 48.939 180.074 46.875 180.5 C45.851 180.711 44.827 180.922 43.772 181.14 C35.45 182.871 27.225 184.856 19 187 C8.715 189.641 -1.625 191.914 -12.031 194.02 C-25.717 196.806 -39.314 199.899 -52.897 203.145 C-59.205 204.65 -65.513 206.128 -71.859 207.465 C-79.66 209.113 -87.404 210.982 -95.155 212.845 C-151.993 226.47 -151.993 226.47 -171.879 214.465 C-182.862 206.88 -189.577 197.132 -192.688 184.125 C-194.176 169.243 -189.222 156.765 -183.188 143.312 C-182.327 141.367 -181.471 139.42 -180.614 137.473 C-180.013 136.111 -179.412 134.748 -178.81 133.386 C-175.528 125.96 -172.344 118.492 -169.158 111.024 C-166.71 105.29 -164.248 99.562 -161.787 93.834 C-161.065 92.152 -160.346 90.47 -159.626 88.788 C-158.529 86.23 -157.423 83.677 -156.312 81.125 C-156.022 80.443 -155.732 79.761 -155.432 79.058 C-153.126 73.814 -150.297 69.604 -145.562 66.312 C-145.007 65.917 -144.451 65.521 -143.879 65.113 C-136.53 60.759 -128.376 61.04 -120.133 62.512 C-111.427 65.16 -104.807 71.208 -98 77 C-97.397 77.512 -96.795 78.024 -96.174 78.551 C-95.575 79.06 -94.976 79.569 -94.359 80.094 C-93.774 80.591 -93.189 81.089 -92.585 81.601 C-91.473 82.552 -90.365 83.508 -89.262 84.471 C-84.652 88.457 -82.082 90.111 -76 90 C-55.093 48.375 -55.093 48.375 -48.688 34.875 C-48.268 33.994 -47.849 33.114 -47.418 32.207 C-45.906 29.025 -44.395 25.843 -42.899 22.654 C-33.127 1.908 -33.127 1.908 -23.297 -2.379 C-15.638 -4.45 -7.005 -3.735 0 0 Z " fill="accent" data-role="accent" transform="translate(304,247)"/>
<path d="M0 0 C1.901 0.422 3.803 0.843 5.705 1.262 C9.412 2.08 13.118 2.903 16.823 3.732 C22.433 4.983 28.056 6.162 33.688 7.312 C62.902 13.35 92.043 19.736 121.155 26.246 C128.942 27.987 136.73 29.725 144.518 31.46 C147.413 32.106 150.307 32.753 153.2 33.4 C155.015 33.805 156.83 34.209 158.645 34.613 C159.512 34.807 160.38 35 161.274 35.2 C165.233 36.076 169.194 36.925 173.177 37.692 C173.864 37.824 174.552 37.957 175.261 38.094 C177.07 38.437 178.882 38.769 180.693 39.101 C186.509 40.483 190.833 43.082 194.188 48.062 C196.23 52.229 196.36 56.272 195.688 60.812 C193.627 66.766 189.763 70.113 184.312 73.125 C178.553 74.634 173.811 73.942 168.164 72.438 C162.023 70.861 155.859 69.645 149.625 68.5 C132.899 65.354 116.3 61.65 99.75 57.688 C94.065 56.327 88.362 55.123 82.625 54 C73.642 52.239 64.693 50.33 55.75 48.375 C55.058 48.224 54.365 48.072 53.652 47.916 C44.386 45.887 35.136 43.802 25.934 41.498 C21.06 40.299 16.162 39.323 11.227 38.418 C3.063 36.917 -5.046 35.211 -13.144 33.388 C-14.69 33.042 -16.237 32.702 -17.785 32.367 C-20.071 31.873 -22.352 31.362 -24.633 30.848 C-25.317 30.703 -26.002 30.558 -26.707 30.408 C-33.579 28.817 -38.344 25.623 -42.312 19.812 C-44.991 15.221 -44.526 10.827 -43.312 5.812 C-34.766 -10.964 -14.609 -3.325 0 0 Z " fill="accent" data-role="accent" transform="translate(513.3125,180.1875)"/>
<path d="M0 0 C9.26 7.822 16.96 18.736 18.849 30.952 C19.082 34.043 19.161 37.088 19.152 40.188 C19.151 41.28 19.15 42.372 19.149 43.497 C18.784 56.28 13.864 65.655 5.402 75.062 C-7.145 85.87 -21.374 89.186 -37.598 88.062 C-51.406 85.49 -62.258 78.278 -70.598 67.062 C-72.605 63.835 -74.186 60.589 -75.598 57.062 C-75.757 56.667 -75.757 56.667 -76.562 54.668 C-80.809 42.556 -79.362 28.617 -74.098 17.062 C-67.126 4.033 -56.613 -4.572 -42.598 -8.938 C-27.653 -12.039 -12.292 -9.168 0 0 Z " fill="accent" data-role="accent" transform="translate(159.59765625,167.9375)"/>
<path d="M0 0 C2.136 0.462 4.273 0.923 6.41 1.383 C6.974 1.505 6.974 1.505 9.829 2.122 C17.17 3.681 24.538 5.11 31.903 6.555 C43.428 8.838 54.899 11.358 66.375 13.875 C68.524 14.346 70.674 14.817 72.823 15.288 C76.156 16.019 79.489 16.749 82.822 17.48 C122.169 26.103 122.169 26.103 140.25 29.812 C140.918 29.95 141.586 30.088 142.275 30.229 C149.098 31.632 155.926 32.988 162.773 34.266 C163.935 34.486 165.097 34.707 166.293 34.934 C168.425 35.336 170.559 35.727 172.695 36.103 C181.379 37.746 186.024 40.843 191.375 47.875 C193.58 52.284 192.626 57.054 191.25 61.562 C188.593 66.256 185.607 69.131 180.375 70.875 C171.207 71.763 162.649 69.913 153.803 67.8 C149.815 66.848 145.817 65.939 141.82 65.023 C141.418 64.931 141.418 64.931 139.382 64.461 C132.074 62.783 124.736 61.305 117.375 59.875 C106.502 57.746 95.684 55.429 84.875 53 C72.227 50.158 59.564 47.406 46.875 44.75 C46.079 44.583 45.282 44.417 44.462 44.245 C41.322 43.588 38.182 42.931 35.041 42.274 C26.613 40.51 18.192 38.711 9.776 36.885 C4.765 35.799 -0.246 34.742 -5.285 33.793 C-6.153 33.625 -7.021 33.457 -7.915 33.284 C-9.472 32.986 -11.032 32.699 -12.594 32.431 C-19.223 31.144 -24.468 28.14 -29.125 23.25 C-31.275 18.413 -31.272 14.087 -30.625 8.875 C-28.822 4.267 -25.505 1.785 -21.625 -1.125 C-14.393 -3.536 -7.212 -1.615 0 0 Z " fill="accent" data-role="accent" transform="translate(503.625,253.125)"/>
</svg>
